<svg width="568" height="568" viewBox="0 0 568 568" fill="none" xmlns="http://www.w3.org/2000/svg">
<path d="M200.221 466.57C187.967 465.365 178.124 456.005 176.061 444.162H240.045V439.562C240.045 419.503 223.54 403.185 203.257 403.185C182.974 403.185 166.46 419.503 166.46 439.562C166.46 451.289 172.105 461.73 180.84 468.392C180.956 468.482 181.063 468.571 181.179 468.651C181.268 468.723 181.367 468.785 181.456 468.848C187.351 473.224 194.228 475.538 201.176 475.877C201.864 475.913 202.552 475.939 203.248 475.939V475.913C213.6 475.832 223.906 471.384 231.15 462.828L229.989 461.846C226.943 459.265 222.522 459.068 219.271 461.408C215.064 464.436 208.696 467.401 200.212 466.562L200.221 466.57ZM176.061 434.954C178.285 422.155 189.637 412.384 203.248 412.384C216.86 412.384 228.211 422.155 230.435 434.954H176.061Z" fill="#221F20"/>
<path d="M392.869 466.57C380.615 465.365 370.773 456.005 368.709 444.162H432.693V439.562C432.693 419.503 416.188 403.185 395.905 403.185C375.622 403.185 359.108 419.503 359.108 439.562C359.108 451.289 364.753 461.73 373.488 468.392C373.604 468.482 373.711 468.571 373.827 468.651C373.916 468.723 374.015 468.785 374.104 468.848C379.999 473.224 386.876 475.538 393.824 475.877C394.512 475.913 395.2 475.939 395.896 475.939V475.913C406.248 475.832 416.554 471.384 423.798 462.828L422.637 461.846C419.591 459.265 415.17 459.068 411.919 461.408C407.712 464.436 401.344 467.401 392.86 466.562L392.869 466.57ZM368.709 434.954C370.933 422.155 382.285 412.384 395.896 412.384C409.508 412.384 420.859 422.155 423.083 434.954H368.709Z" fill="#221F20"/>
<path d="M154.126 410.267L133.37 459.112L110.863 403.015C106.031 403.015 101.673 405.944 99.8506 410.419L80.041 459.068L56.6767 402.81H56.6231C51.9074 402.81 48.701 407.606 50.5141 411.964L77.0847 475.948H83.1133L106.835 417.698L130.199 475.948H136.219L167.3 402.81H165.406C160.494 402.81 156.046 405.748 154.126 410.267Z" fill="#221F20"/>
<path d="M346.774 410.267L326.018 459.112L303.511 403.015C298.679 403.015 294.321 405.944 292.499 410.419L272.689 459.068L249.325 402.81H249.271C244.555 402.81 241.349 407.606 243.162 411.964L269.733 475.948H275.761L299.483 417.698L322.847 475.948H328.867L359.948 402.81H358.054C353.142 402.81 348.694 405.748 346.774 410.267Z" fill="#221F20"/>
<path d="M480.485 403.158C469.329 403.158 459.344 408.106 452.592 415.876V382C447.51 382 443.384 386.126 443.384 391.208V475.716H452.592V463.221C459.344 470.991 469.338 475.939 480.485 475.939C500.777 475.939 517.291 459.613 517.291 439.544C517.291 419.476 500.777 403.149 480.485 403.149V403.158ZM480.485 466.74C465.266 466.74 452.887 454.54 452.887 439.553C452.887 424.567 465.266 412.366 480.485 412.366C495.704 412.366 508.082 424.558 508.082 439.553C508.082 454.549 495.704 466.74 480.485 466.74Z" fill="#221F20"/>
<path d="M178.181 202.583C146.873 202.583 120.923 226.525 118.244 257.497L112.719 321.117H178.851L189.231 202.416H178.348L178.181 202.583Z" fill="#221F20"/>
<path d="M432.661 83.8823C397.167 83.8823 369.376 114.353 372.724 149.679L388.796 321.118H454.928L432.661 83.8823Z" fill="#221F20"/>
<path d="M318.312 135.783C276.792 135.783 239.457 161.399 224.724 200.24L178.851 321.118H244.982L283.823 219.661L322.665 321.118H388.796L318.312 135.783Z" fill="#221F20"/>
</svg>
